<svg width="16" height="16" viewBox="0 0 16 16" xmlns="http://www.w3.org/2000/svg"><path d="M3.49 12a.498.498 0 0 1-.196-.044c-.252-.114-.364-.41-.25-.661l.882-1.954l-.806-6.385l-.74-1.456l-1.881 0c-.276 0-.5-.224-.5-.5s.224-.5.5-.5l2.494 0l.763 1.5l11.243 0l-1.01 6.397l-8.985.987l-.73 1.616l9.726 0l0 1l-10.489 0a.528.528 0 0 1-.001 0c.824.005 1.491.675 1.491 1.5c0 .828-.672 1.5-1.5 1.5s-1.5-.672-1.5-1.5c0-.825.666-1.495 1.49-1.5zm10.01 3c-.828 0-1.5-.672-1.5-1.5s.672-1.5 1.5-1.5s1.5.672 1.5 1.5s-.672 1.5-1.5 1.5z" fill="#5589A7" fill-rule="evenodd"/></svg>